:SAMPLES-PER-SECOND 30
:FULLY-SPECIFIED
:DEGREES
463
root  3.28917 40.0265 -0.0618758 -106.323 -86.3712 100.534
RightUpLeg  -16.8054 -16.605 -5.47657
RightLeg  24.5553 -5.48012 -3.10948
RightFoot  1.6838 -1.01376 8.96426
RightToes  0.000482159 0.542163 -0.142577
Spine  16.3722 0.839359 1.35362
Spine1  5.42023 1.89687 -3.65436
HEad  -0.471925 0.0807159 -5.63376
LeftShoulder1  7.64002 -11.651 -43.8754
LeftArm  -12.0991 15.8711 -26.5712
LeftForeArm  36.5931 -34.1806 -5.50773
LeftHand  -0.25398 0.0180481 5.50724
RightShoulder  5.53405 9.74956 35.7799
RightArm  6.42476 -19.0391 37.654
RightForeArm  9.13662 18.4085 5.53017
RightHand  -0.452366 -0.611983 -10.9602
LeftUpLeg  -2.81927 9.59518 -2.73921
LeftLeg  16.2844 4.49905 -0.0939675
LeftFoot  -7.89089 0.0228605 0.839909
LeftToes  1.06246e-005 4.65854e-005 -8.18502e-006
464
root  4.31748 40.1809 -0.225591 -97.0772 -86.9695 91.2926
RightUpLeg  -15.075 -12.9151 -7.04789
RightLeg  32.9935 -7.45026 -5.40429
RightFoot  0.992828 -0.825251 7.69372
RightToes  0.000482159 0.542163 -0.142577
Spine  15.5108 0.723934 0.885802
Spine1  4.98756 1.35845 -2.24198
HEad  1.15822 0.707295 -5.19173
LeftShoulder1  7.48947 -11.4067 -43.7058
LeftArm  -11.0752 19.1947 -27.0113
LeftForeArm  34.9139 -32.1547 -5.10743
LeftHand  -0.25398 0.0180481 5.50724
RightShoulder  5.36978 9.35527 35.7831
RightArm  6.59747 -18.4449 36.7011
RightForeArm  9.49735 19.5111 5.10173
RightHand  -0.470757 -0.506392 -11.1405
LeftUpLeg  -3.51148 8.92214 -1.81907
LeftLeg  14.1964 4.49455 -0.960586
LeftFoot  -5.2161 -0.0107163 0.768957
LeftToes  1.06246e-005 4.65854e-005 -8.18502e-006
465
root  5.30736 40.1984 -0.41475 -84.2243 -87.0971 78.2691
RightUpLeg  -12.6316 -10.1485 -8.58955
RightLeg  40.3816 -7.28802 -6.84674
RightFoot  0.446555 -0.733144 7.12612
RightToes  0.000482159 0.542163 -0.142577
Spine  14.7484 0.591782 0.648027
Spine1  4.74115 1.08616 -1.75638
HEad  2.18035 0.804479 -4.28258
LeftShoulder1  7.40629 -11.3007 -43.5196
LeftArm  -9.37749 21.8649 -27.0843
LeftForeArm  33.6602 -29.748 -4.6154
LeftHand  -0.25398 0.0180481 5.50724
RightShoulder  5.23067 9.01209 35.8153
RightArm  4.66216 -18.5518 36.3467
RightForeArm  5.99143 21.3296 4.76249
RightHand  -0.686146 0.525721 -13.4472
LeftUpLeg  -4.30631 8.47542 -1.37241
LeftLeg  12.7239 4.41856 -1.56967
LeftFoot  -3.29764 -0.0544639 1.05922
LeftToes  1.06246e-005 4.65854e-005 -8.18502e-006
466
root  6.28435 40.0945 -0.63419 -79.2436 -86.585 72.954
RightUpLeg  -9.23028 -7.91127 -10.4629
RightLeg  45.6273 -6.06747 -6.91049
RightFoot  -0.578367 -0.667449 7.02672
RightToes  0.000482159 0.542163 -0.142577
Spine  14.0504 0.71439 0.15315
Spine1  4.80352 1.17455 -1.75828
HEad  2.63298 0.439649 -3.36879
LeftShoulder1  7.37115 -11.2547 -43.4436
LeftArm  -7.73873 23.9009 -27.0634
LeftForeArm  32.9299 -27.0213 -4.04337
LeftHand  -0.25398 0.0180481 5.50724
RightShoulder  5.13013 8.79894 35.7242
RightArm  1.7205 -18.6841 36.4309
RightForeArm  0.987732 22.9388 4.91588
RightHand  -1.14129 2.50574 -16.8987
LeftUpLeg  -5.4101 8.34523 -1.60778
LeftLeg  12.2549 4.35669 -1.78851
LeftFoot  -1.76525 -0.0714451 0.992009
LeftToes  1.06246e-005 4.65854e-005 -8.18502e-006
467
root  7.26252 39.9443 -0.876007 -77.0459 -85.9578 70.445
RightUpLeg  -5.19389 -6.5092 -12.2155
RightLeg  48.4018 -4.96718 -6.30858
RightFoot  -0.696195 -0.590082 6.29998
RightToes  0.000482159 0.542163 -0.142577
Spine  13.28 0.93009 -0.145022
Spine1  4.94064 1.43052 -1.82021
HEad  2.93371 -0.248982 -2.76317
LeftShoulder1  7.34997 -11.1966 -43.4923
LeftArm  -6.73754 25.5071 -27.1184
LeftForeArm  32.4239 -24.0117 -3.48745
LeftHand  -0.25398 0.0180481 5.50724
RightShoulder  5.05012 8.63524 35.6296
RightArm  -0.63342 -18.5662 36.5812
RightForeArm  -2.85814 24.2909 5.33315
RightHand  -1.68716 4.53294 -19.9267
LeftUpLeg  -6.8836 8.82916 -2.17439
LeftLeg  12.3987 3.67118 -1.5915
LeftFoot  0.02882 -0.0611781 0.610737
LeftToes  1.06246e-005 4.65854e-005 -8.18502e-006
468
root  8.27481 39.7212 -1.14041 -75.998 -85.5455 69.168
RightUpLeg  -0.880029 -5.31932 -13.4614
RightLeg  48.7168 -4.04531 -5.26983
RightFoot  0.97647 -0.630099 5.8487
RightToes  0.000482159 0.542163 -0.142577
Spine  12.5492 1.14664 0.275966
Spine1  5.02906 1.85231 -2.34334
HEad  3.20066 -1.03184 -2.6563
LeftShoulder1  7.3231 -11.1157 -43.5773
LeftArm  -7.16672 26.7894 -27.2836
LeftForeArm  32.3155 -20.9799 -3.28963
LeftHand  -0.25398 0.0180481 5.50724
RightShoulder  4.99779 8.50113 35.6576
RightArm  -1.66924 -18.1843 36.5613
RightForeArm  -4.5051 25.7459 5.7554
RightHand  -2.01436 5.55265 -21.5305
LeftUpLeg  -8.94162 9.65489 -2.81619
LeftLeg  13.2878 2.69031 -1.01573
LeftFoot  1.64099 -0.110738 0.877974
LeftToes  1.06246e-005 4.65854e-005 -8.18502e-006
469
root  9.35831 39.4314 -1.43828 -81.0758 -85.2979 74.1838
RightUpLeg  3.61649 -3.29242 -14.1136
RightLeg  46.011 -2.79271 -3.43482
RightFoot  1.57234 -0.848926 7.61466
RightToes  0.000482159 0.542163 -0.142577
Spine  11.9454 1.49664 1.14174
Spine1  5.15397 2.52186 -3.36369
HEad  3.10366 -1.55982 -3.01422
LeftShoulder1  7.29359 -11.048 -43.6045
LeftArm  -8.95469 27.9349 -27.5919
LeftForeArm  32.3139 -18.5014 -3.47857
LeftHand  -0.25398 0.0180481 5.50724
RightShoulder  4.97193 8.44041 35.6527
RightArm  -1.54041 -17.3883 36.5328
RightForeArm  -4.00811 27.2213 6.0745
RightHand  -1.98782 5.38337 -21.5489
LeftUpLeg  -11.4056 9.96915 -3.40296
LeftLeg  14.3596 2.5843 -0.310992
LeftFoot  2.93366 -0.238506 1.75783
LeftToes  1.06246e-005 4.65854e-005 -8.18502e-006
470
root  10.5036 39.1475 -1.77401 -91.6555 -84.9684 85.0041
RightUpLeg  8.03222 -0.761071 -14.2996
RightLeg  40.1631 -1.13596 -1.32739
RightFoot  -2.71767 -0.845707 11.2562
RightToes  0.000482159 0.542163 -0.142577
Spine  11.466 1.93557 2.02235
Spine1  5.17704 3.29728 -4.38645
HEad  2.35621 -1.62967 -3.62495
LeftShoulder1  7.28632 -11.0314 -43.611
LeftArm  -10.2954 29.0896 -27.925
LeftForeArm  31.2278 -17.0362 -3.60475
LeftHand  -0.25398 0.0180481 5.50724
RightShoulder  4.94366 8.43054 35.4543
RightArm  -0.78368 -16.0509 36.79
RightForeArm  -1.89748 28.4659 6.26331
RightHand  -1.74585 4.57791 -20.4697
LeftUpLeg  -13.8222 9.60842 -3.71667
LeftLeg  14.6129 3.54593 0.271876
LeftFoot  4.72579 -0.278808 1.79149
LeftToes  1.06246e-005 4.65854e-005 -8.18502e-006
471
root  11.7382 38.88 -2.14504 -100.543 -84.6477 94.3986
RightUpLeg  11.5146 0.506247 -14.2532
RightLeg  32.6986 0.664515 0.211663
RightFoot  -11.1385 -0.114814 14.2299
RightToes  0.000482159 0.542163 -0.142577
Spine  11.4668 2.15681 3.21091
Spine1  4.81192 3.88283 -5.48125
HEad  0.948308 -1.40986 -4.37342
LeftShoulder1  7.33156 -11.0652 -43.7893
LeftArm  -10.6107 29.8972 -27.9147
LeftForeArm  30.011 -16.4014 -3.69253
LeftHand  -0.25398 0.0180481 5.50724
RightShoulder  4.91269 8.41234 35.2615
RightArm  -0.0210238 -14.3256 37.2847
RightForeArm  0.789682 29.6671 6.41485
RightHand  -1.50627 3.81103 -19.1679
LeftUpLeg  -16.1915 9.02511 -3.49805
LeftLeg  14.1194 4.75358 0.574773
LeftFoot  7.01899 -0.110616 0.428222
LeftToes  1.06246e-005 4.65854e-005 -8.18502e-006
472
root  13.1114 38.6882 -2.52662 -103.876 -84.9148 98.3284
RightUpLeg  12.8051 -0.904766 -13.8545
RightLeg  26.6637 2.03866 0.896977
RightFoot  -18.2597 0.675636 13.4085
RightToes  0.000482159 0.542163 -0.142577
Spine  12.3128 1.89567 5.41441
Spine1  4.10513 4.13673 -7.0194
HEad  -1.0326 -1.25891 -5.26735
LeftShoulder1  7.43489 -11.1291 -44.2346
LeftArm  -10.5003 29.7479 -27.6093
LeftForeArm  30.1552 -16.0746 -3.74517
LeftHand  -0.25398 0.0180481 5.50724
RightShoulder  4.92069 8.40632 35.3476
RightArm  0.374618 -12.5006 37.6616
RightForeArm  2.66914 31.0065 6.64807
RightHand  -1.41029 3.51377 -18.5552
LeftUpLeg  -18.1836 8.0669 -2.37299
LeftLeg  12.6247 5.89054 0.237728
LeftFoot  8.18393 0.100849 -0.88526
LeftToes  1.06246e-005 4.65854e-005 -8.18502e-006
473
root  14.5907 38.6889 -2.8996 -102.404 -85.7451 97.5105
RightUpLeg  11.5524 -3.88451 -12.7859
RightLeg  23.9935 2.22444 0.862194
RightFoot  -21.073 0.690985 9.69105
RightToes  0.000482159 0.542163 -0.142577
Spine  13.5971 1.29473 8.11265
Spine1  3.49778 4.13994 -8.53198
HEad  -3.35766 -1.27381 -6.12658
LeftShoulder1  7.55933 -11.227 -44.6973
LeftArm  -10.8572 28.7435 -27.7608
LeftForeArm  31.5429 -15.8012 -3.70209
LeftHand  -0.25398 0.0180481 5.50724
RightShoulder  4.9754 8.47683 35.5571
RightArm  0.680639 -10.7567 37.7463
RightForeArm  2.95712 31.9903 6.88425
RightHand  -1.48047 3.77261 -18.9162
LeftUpLeg  -19.036 5.80233 -0.165929
LeftLeg  9.01492 8.04899 -1.19042
LeftFoot  6.68755 0.164059 -1.29001
LeftToes  1.06246e-005 4.65854e-005 -8.18502e-006
